<svg xmlns="http://www.w3.org/2000/svg" xmlns:xlink="http://www.w3.org/1999/xlink" width="48" zoomAndPan="magnify" viewBox="0 0 36 36.000001" height="48" preserveAspectRatio="xMidYMid meet" version="1.0"><defs><clipPath id="b19484375f"><path d="M 25 7.421875 L 32 7.421875 L 32 18 L 25 18 Z M 25 7.421875 " clip-rule="nonzero"/></clipPath><clipPath id="bee209bdca"><path d="M 3 7.421875 L 16 7.421875 L 16 27.851562 L 3 27.851562 Z M 3 7.421875 " clip-rule="nonzero"/></clipPath><clipPath id="8e5007529c"><path d="M 14 7.421875 L 27 7.421875 L 27 27.851562 L 14 27.851562 Z M 14 7.421875 " clip-rule="nonzero"/></clipPath></defs><g clip-path="url(#b19484375f)"><path fill="#ffffff" d="M 31.359375 10.882812 L 29.015625 7.421875 L 28.660156 7.421875 L 26.253906 10.835938 C 25.910156 11.324219 25.738281 11.867188 25.738281 12.464844 C 25.738281 13.0625 25.910156 13.605469 26.253906 14.09375 L 28.660156 17.507812 L 29.007812 17.507812 L 31.355469 14.054688 C 31.683594 13.578125 31.847656 13.046875 31.847656 12.46875 C 31.847656 11.890625 31.6875 11.359375 31.359375 10.882812 Z M 31.359375 10.882812 " fill-opacity="1" fill-rule="nonzero"/></g><g clip-path="url(#bee209bdca)"><path fill="#ffffff" d="M 6.203125 7.421875 L 5.855469 7.421875 L 3.980469 10.074219 C 3.734375 10.425781 3.546875 10.804688 3.417969 11.210938 C 3.289062 11.621094 3.226562 12.039062 3.226562 12.464844 C 3.226562 12.894531 3.289062 13.3125 3.417969 13.71875 C 3.546875 14.128906 3.734375 14.507812 3.980469 14.859375 L 12.933594 27.589844 L 13.285156 27.589844 L 15.105469 24.90625 C 15.339844 24.558594 15.515625 24.183594 15.636719 23.78125 C 15.757812 23.382812 15.816406 22.972656 15.816406 22.554688 C 15.8125 22.136719 15.75 21.726562 15.625 21.328125 C 15.5 20.925781 15.316406 20.554688 15.078125 20.210938 Z M 6.203125 7.421875 " fill-opacity="1" fill-rule="nonzero"/></g><g clip-path="url(#8e5007529c)"><path fill="#ffffff" d="M 17.015625 7.421875 L 16.667969 7.421875 L 14.792969 10.074219 C 14.546875 10.425781 14.359375 10.804688 14.230469 11.210938 C 14.101562 11.621094 14.035156 12.039062 14.035156 12.464844 C 14.035156 12.894531 14.101562 13.3125 14.230469 13.71875 C 14.359375 14.128906 14.546875 14.507812 14.792969 14.859375 L 23.746094 27.589844 L 24.09375 27.589844 L 25.917969 24.90625 C 26.148438 24.558594 26.328125 24.183594 26.449219 23.78125 C 26.570312 23.382812 26.628906 22.972656 26.625 22.554688 C 26.625 22.136719 26.558594 21.726562 26.433594 21.328125 C 26.308594 20.925781 26.128906 20.554688 25.890625 20.210938 Z M 17.015625 7.421875 " fill-opacity="1" fill-rule="nonzero"/></g></svg>